<?xml version="1.0" encoding="utf-8"?>
<!-- Generator: Adobe Illustrator 20.1.0, SVG Export Plug-In . SVG Version: 6.00 Build 0)  -->
<svg version="1.1" id="Layer_1" xmlns="http://www.w3.org/2000/svg" xmlns:xlink="http://www.w3.org/1999/xlink" x="0px" y="0px"
	 viewBox="0 0 182.8 41.8" style="enable-background:new 0 0 182.8 41.8;" xml:space="preserve">
<style type="text/css">
	.st0{fill:#FFFFFF;}
</style>
<g>
	<g>
		<g>
			<g>
				<path class="st0" d="M23.1,1.4l11,18.4c0,0-4.2-5.3-17-8.1L23.1,1.4z"/>
				<path class="st0" d="M8.9,10.2l8.5,2.8c0,0,10.8,3.2,10,10.8c0,0,0.2,5.6-8.1,9.8C10.9,37.9,5,38.8,1.1,39.4l13.7-23.6
					c0,0,0.8-1-0.3-2.1L8.9,10.2z"/>
				<path class="st0" d="M37.5,25.4L46,39.5H31.5C31.5,39.5,40.4,36.4,37.5,25.4z"/>
			</g>
		</g>
		<g>
			<path class="st0" d="M67.6,28l-1.3-2.9h-6.6L58.5,28h-3l7.6-16.3L70.7,28H67.6z M63.1,17.7l-2.2,5h4.4L63.1,17.7z"/>
			<path class="st0" d="M81.6,12.3h2.7v13.7c-1.1,1.3-3.1,2.3-6,2.3c-3.8,0-6-2-6-6.1v-9.9h2.7v8.2c0,3.9,0.8,5.2,3.7,5.2
				c1.2,0,2.2-0.3,2.9-0.8V12.3z"/>
			<path class="st0" d="M91.4,28V15h-4.3v-2.6h11.3V15h-4.3v13H91.4z"/>
			<path class="st0" d="M107.9,28.3c-4.4,0-8-3.7-8-8.2c0-4.5,3.6-8.2,8-8.2c4.4,0,7.9,3.5,7.9,8.3
				C115.8,24.7,112.1,28.3,107.9,28.3z M107.9,14.6c-2.8,0-5.1,2.4-5.1,5.5c0,2.9,2.3,5.6,5,5.6c2.9,0,5.2-2.4,5.2-5.5
				C112.9,17,110.6,14.6,107.9,14.6z"/>
			<path class="st0" d="M119.1,28V12.3h4.4c4.4,0,7.9,2.7,7.9,7.8c0,5-3.3,7.8-8.4,7.8H119.1z M123.5,25.3c2.7,0,5-1.4,5-5.2
				c0-3-1.9-5.1-4.6-5.1h-2v10.3H123.5z"/>
			<path class="st0" d="M144.5,28l-1.3-2.9h-6.6l-1.3,2.9h-3l7.6-16.3l7.6,16.3H144.5z M139.9,17.7l-2.2,5h4.4L139.9,17.7z"/>
			<path class="st0" d="M151.5,28V15h-4.3v-2.6h11.3V15h-4.3v13H151.5z"/>
			<path class="st0" d="M170.5,28l-1.3-2.9h-6.6l-1.3,2.9h-3l7.6-16.3l7.6,16.3H170.5z M165.9,17.7l-2.2,5h4.4L165.9,17.7z"/>
		</g>
	</g>
	<g>
		<path class="st0" d="M174.6,15.9v-4h-1.5v-0.5h3.6v0.5h-1.5v4H174.6z"/>
		<path class="st0" d="M177.3,15.9v-4.5h0.9l1.1,3.2c0.1,0.3,0.2,0.5,0.2,0.7c0.1-0.2,0.1-0.4,0.2-0.7l1.1-3.1h0.8v4.5h-0.6v-3.8
			l-1.3,3.8h-0.5l-1.3-3.8v3.8H177.3z"/>
	</g>
</g>
</svg>
